# xmcd
#
# Track frame offsets: 
#        150
#        27167
#        47650
#        62937
#        77790
#        96655
#        115000
#        141125
#        161852
#        184910
#        199900
#        219475
#        240557
#        262357
#        285940
#        304640
#        324671
#
# Disc length: 4654 seconds
#
# Revision: 3
# Processed by: cddbd v1.5.2PL0 Copyright (c) Steve Scherf et al.
# Submitted via: ExactAudioCopy v0.99pb4
#
DISCID=01122c11
DTITLE=Tish Hinojosa - The Best of Tish Hinojosa Live
DYEAR=2003
DGENRE=Folk
TTITLE0=Laughing River Running (Riendo El Rio Corre)
TTITLE1=Aquella Noche (That Certain Night)
TTITLE2=Taos To Tennessee
TTITLE3=In The Real West
TTITLE4=Bandera Del Sol (Flag Of The Sun)
TTITLE5=Donde Voy (Where I Go)
TTITLE6=Something In The Rain
TTITLE7=Poquita Fe (Little Faith)
TTITLE8=Roses Around My Feet
TTITLE9=I'm Not Through Loving You Yet
TTITLE10=She's A Highway
TTITLE11=Otra Vez (Once Again)
TTITLE12=Con Su Pluma En Su Mano  (With His Pen in His Hand)
TTITLE13=West Side Of Town
TTITLE14=Manos Huesos Y Sangre - Hands Bones and Blood (Song for Frida
TTITLE14=Kahlo)
TTITLE15=God's Own Open Road
TTITLE16=Cumbia Polka y Mas (Cumbia Polka and More)
EXTD=YEAR: 2003
EXTT0=
EXTT1=
EXTT2=
EXTT3=
EXTT4=
EXTT5=
EXTT6=
EXTT7=
EXTT8=
EXTT9=
EXTT10=
EXTT11=
EXTT12=
EXTT13=
EXTT14=
EXTT15=
EXTT16=
PLAYORDER=
